/* XPM */
static char *dummy[]={
"24 24 103 2",
"Qt c None",
".J c #173156",
".C c #1c3b68",
".c c #1c3c6a",
".# c #1c3f72",
".i c #1d3e6e",
".t c #1e4377",
".m c #20487f",
".W c #204880",
"#u c #204a84",
"#D c #204a85",
"#p c #204a86",
".d c #204a87",
"## c #214881",
".e c #214a84",
"#K c #214b85",
".l c #224b85",
".4 c #224c85",
".a c #234c86",
"#g c #254e8a",
".X c #285089",
"#a c #2a528c",
".Q c #325990",
".b c #385f95",
"#G c #386ea6",
"#F c #3a6fa7",
"#B c #3b71a8",
"#A c #3d73a9",
".K c #3f6599",
"#x c #4175ac",
"#w c #4377ad",
"#s c #467ab0",
".h c #4970a2",
"#r c #497cb1",
"#o c #4c7fb4",
".r c #4d74a5",
".D c #4f75a5",
"#n c #4f81b5",
"#I c #5080b1",
"#J c #5180b1",
"#j c #5183b8",
"#E c #5482b3",
"#i c #5485b9",
"#H c #5684b4",
"#d c #5788bc",
"#c c #5889bd",
"#e c #5989bd",
"#z c #5b88b6",
".7 c #5c8dbf",
".u c #5e84b3",
"#C c #5e8bb8",
"#. c #6087b5",
".8 c #6291c1",
".0 c #6291c3",
".3 c #648ab8",
".V c #658bb9",
".A c #6689b6",
"#v c #6690bc",
".T c #6796c7",
"#y c #6892bd",
".1 c #6895c5",
".N c #6d9acb",
".n c #6f94c0",
"#q c #6f97c1",
".O c #6f9ccc",
"#t c #7299c3",
".x c #729fcf",
".w c #76a2d0",
"#m c #789fc7",
".S c #79a2ce",
".F c #79a4d1",
".M c #7aa3cf",
".G c #7aa5d2",
".Z c #7ba2cc",
".f c #7da1c9",
".I c #7da7d3",
".y c #7ea7d3",
".p c #80a8d4",
".5 c #81a4c9",
"#h c #81a5cb",
"#l c #81a6cc",
"#b c #88abd0",
".H c #88add7",
".Y c #89aad0",
"#f c #8aacd0",
".2 c #8fb0d4",
".6 c #90b2d4",
".U c #90b2d6",
".9 c #92b3d4",
".R c #92b3d5",
".o c #97b8dc",
".L c #99b8db",
".v c #9abadd",
".P c #9bbadc",
".j c #9cbbdc",
".q c #9cbcdd",
".E c #9dbcdd",
".z c #9dbcde",
".k c #9ebdde",
".B c #9fbdde",
".g c #a0bedf",
".s c #a1bfdf",
"#k c #ffffff",
"QtQtQtQtQtQtQtQtQtQtQtQtQtQtQtQtQtQtQtQtQtQtQtQt",
"QtQtQtQtQtQtQtQtQtQtQtQtQtQtQtQtQtQtQtQtQtQtQtQt",
"QtQtQtQtQtQtQtQtQtQtQt.#QtQtQtQtQtQtQtQtQtQtQtQt",
"QtQtQtQtQtQtQtQtQtQt.a.b.cQt.d.d.d.dQtQtQtQtQtQt",
"QtQtQtQtQtQtQtQtQt.e.f.g.h.i.d.j.k.lQtQtQtQtQtQt",
"QtQtQtQtQtQtQtQt.m.n.o.p.q.r.d.s.s.lQtQtQtQtQtQt",
"QtQtQtQtQtQtQt.t.u.v.w.x.y.z.A.k.B.lQtQtQtQtQtQt",
"QtQtQtQtQtQt.C.D.E.F.x.x.x.G.H.I.k.lQtQtQtQtQtQt",
"QtQtQtQtQt.J.K.L.M.N.N.N.N.N.N.O.P.dQtQtQtQtQtQt",
"QtQtQtQtQt.Q.R.S.T.T.T.T.T.T.T.T.U.V.WQtQtQtQtQt",
"QtQtQtQt.X.Y.Z.0.0.0.0.0.0.0.0.0.1.2.3.WQtQtQtQt",
"QtQtQt.4.5.6.7.7.7.7.7.7.7.7.7.7.7.8.9#.##QtQtQt",
"QtQt.d.d#a#b#c#d#d#d#d#d#d#d#d#d#d#e#f#g.d.dQtQt",
"QtQtQtQt.d#h#i#j#k#k#k#k#k#k#k#j#j#i#l.dQtQtQtQt",
"QtQtQtQt.d#m#n#o#k#k#k#k#k#k#k#o#o#n#m#pQtQtQtQt",
"QtQtQtQt.d#q#r#s#k#k#k#k#k#k#k#s#s#s#t#uQtQtQtQt",
"QtQtQtQt.d#v#w#x#x#x#x#x#x#x#x#x#x#x#y#uQtQtQtQt",
"QtQtQtQt.d#z#A#B#B#B#B#B#B#B#B#B#B#B#C#DQtQtQtQt",
"QtQtQtQt.d#E#F#G#G#G#G#G#G#G#G#G#G#G#H#DQtQtQtQt",
"QtQtQtQt.d#I#I#I#I#I#J#J#J#J#J#J#J#J#J#KQtQtQtQt",
"QtQtQtQt.d.d.d.d.d.d.d.d.d.d.d.d.d.d.d.dQtQtQtQt",
"QtQtQtQtQtQtQtQtQtQtQtQtQtQtQtQtQtQtQtQtQtQtQtQt",
"QtQtQtQtQtQtQtQtQtQtQtQtQtQtQtQtQtQtQtQtQtQtQtQt",
"QtQtQtQtQtQtQtQtQtQtQtQtQtQtQtQtQtQtQtQtQtQtQtQt"};
