/* XPM */
static char *close_btn[]={
"16 16 16 1",
"e c #000000",
". c #676767",
"a c #acacac",
"n c #afafaf",
"m c #b4b4b4",
"l c #b9b9b9",
"k c #bfbfbf",
"j c #c4c4c4",
"i c #c9c9c9",
"h c #cfcfcf",
"g c #d4d4d4",
"f c #d9d9d9",
"d c #dfdfdf",
"c c #e4e4e4",
"b c #e9e9e9",
"# c #ffffff",
"................",
".#############a.",
".#bbbbbbbbbbbba.",
".#cccccccccccca.",
".#dddeddddeddda.",
".#ffeeeffeeeffa.",
".#gggeeeeeeggga.",
".#hhhheeeehhhha.",
".#iiiieeeeiiiia.",
".#jjjeeeeeejjja.",
".#kkeeekkeeekka.",
".#lllellllellla.",
".#mmmmmmmmmmmma.",
".#nnnnnnnnnnnna.",
".aaaaaaaaaaaaaa.",
"................"};
