/* XPM */
static char *icon_half[]={
"16 16 3 1",
"a c #000000",
"# c #c0c0c0",
". c #ffffff",
"................",
".#######.......a",
".#######.......a",
".#######.......a",
".#######.......a",
".#######.......a",
".#######.......a",
".#######.......a",
".#######.......a",
".#######.......a",
".#######.......a",
".#######.......a",
".#######.......a",
".#######.......a",
"...............a",
".aaaaaaaaaaaaaaa"};
