/* XPM */
static char *icon_cn[]={
"20 16 5 1",
"b c #000000",
"c c #010101",
"a c #ff0000",
"# c #ffff80",
". c #ffffff",
"....................",
".##############a###b",
".#############aaa##b",
".#c####c#####aaaaa#b",
".#bbbb#cbbbb###a###b",
".c##c#c##c#########b",
".##c##bbbbc####a###b",
".#c#c#####c########b",
".#c##cbbc#c####a###b",
".#c##c##c#c########b",
".#c##cbbc#c####a###b",
".#c##c##c#c########b",
".#c##cbbc#c####a###b",
".#c######cc###a#a##b",
".##################b",
".bbbbbbbbbbbbbbbbbbb"};
