/* XPM */
static char *icon_tw[]={
"20 16 5 1",
"b c #000000",
"c c #010101",
"# c #cffffe",
"a c #ff0000",
". c #ffffff",
"....................",
".##############a###b",
".##c#####c####aaa##b",
".##cbbbbbbbbcaaaaa#b",
".#c#c#c##c#c###a###b",
".cbbbbbbc#c########b",
".#c#c#c##c#c###a###b",
".#bbbbc#c###c######b",
".####cbbbb#####a###b",
".#####c####b#######b",
".##cbbbbbbbbb##a###b",
".######c#####b#####b",
".##cc##c##bb###a###b",
".cc###bb####bba#a##b",
".##################b",
".bbbbbbbbbbbbbbbbbbb"};
