/* XPM */
static char *oxim_tray[]={
"16 16 6 1",
". c None",
"b c #000000",
"a c #808000",
"# c #808080",
"c c #ffff00",
"d c #ffffff",
"......#ab.......",
".....#cab.......",
"......aa........",
"...#bbbb........",
"..#.............",
".##############.",
"#ddddddddddddd#b",
"#d#############b",
"#d#dbdbdbdbdbd#b",
"#d#bbbbbbbbbbb#b",
"#d#ddbdbdbdbdd#b",
"#d#bbbbbbbbbbb#b",
"#d#dbdddddbddb#b",
"#d#bbbbbbbbbbb#b",
"###############b",
".bbbbbbbbbbbbbb."};
