/* XPM */
static char *oxim_tray[] = {
/* columns rows colors chars-per-pixel */
"22 20 6 1",
"  c #000000000000",
". c #808080800000",
"X c #FFFFFFFF0000",
"o c #808080808080",
"O c #FFFFFFFFFFFF",
"+ c None",
/* pixels */
"+++++++++++o++++++++++",
"++++++++++o. +++++++++",
"+++++++++oX. +++++++++",
"++++++++++..+o  ++++++",
"++++oo oooo +++o++++++",
"+++o      +   o+++++++",
"++o+++++++++++++++++++",
"+oooooooooooooooooooo+",
"oOOOOOOOOOOOOOOOOOOOo ",
"oOooooooooooooooooooo ",
"oOoO OO O O OO OO O o ",
"oOo                 o ",
"oOoOOO O O OO OO OO o ",
"oOo                 o ",
"oOoO OO O O OO OOOO o ",
"oOo                 o ",
"oOoOOO OOOOOOOOO OO o ",
"oOo                 o ",
"ooooooooooooooooooooo ",
"+                    +"
};
