/* XPM */
static char * sideback[] = {
"5 24 12 1",
" 	c #595959",
".	c #8A8A8A",
"+	c #747474",
"@	c #707070",
"#	c #6B6B6B",
"$	c #666666",
"%	c #626262",
"&	c #5E5E5E",
"*	c #5B5B5B",
"=	c #373737",
"-	c #505050",
";	c #000000",
"     ",
".....",
"+++++",
"@@@@@",
"#####",
"$$$$$",
"%%%%%",
"&&&&&",
"*****",
"*****",
"*****",
"*****",
"=====",
"=====",
"=====",
"=====",
"=====",
"=====",
"=====",
"=====",
"=====",
"=====",
"-----",
";;;;;"};
