/* XPM */
static char *sideback_l[]={
"13 24 57 1",
"O c #000000",
"T c #010101",
"I c #2e2e2e",
"D c #323232",
"x c #363636",
"S c #373737",
"Q c #383838",
"s c #3b3b3b",
"m c #434343",
"i c #474747",
"e c #4f4f4f",
"P c #505050",
"2 c #515151",
"b c #545454",
"# c #585858",
". c #595959",
"a c #5a5a5a",
"J c #5b5b5b",
"M c #5c5c5c",
"H c #5e5e5e",
"F c #5f5f5f",
"z c #616161",
"C c #626262",
"w c #666666",
"u c #676767",
"r c #6a6a6a",
"o c #6b6b6b",
"q c #6c6c6c",
"k c #6f6f6f",
"l c #707070",
"E c #727272",
"h c #737373",
"g c #747474",
"y c #757575",
"t c #797979",
"G c #7b7b7b",
"n c #7d7d7d",
"A c #7e7e7e",
"B c #7f7f7f",
"j c #828282",
"v c #838383",
"f c #858585",
"p c #868686",
"d c #8a8a8a",
"R c #8b8b8b",
"L c #8c8c8c",
"K c #8d8d8d",
"N c #969696",
"U c #979797",
"c c #999999",
"W c #a2a2a2",
"V c #a3a3a3",
"X c #ababab",
"Y c #b4b4b4",
"1 c #b9b9b9",
"Z c #bababa",
"0 c #bbbbbb",
".....#a......",
"bcddddddddddd",
"efgghghgggggg",
"ijkddkllddlll",
"mnopfqropfooo",
"stujvwuwjvwww",
"xyzABCzCABCCC",
"DEFGGHHHGGHHH",
"IlJAAJJJAAJJJ",
"IlJfpJJJfpJJJ",
"IlJKLaMJKLJJJ",
"IlaNNJaJNNJJJ",
"OPQRRSQSRRSSS",
"TPSNUSxSNUSSS",
"OPSVWSSSVWSSS",
"OPxXXSSSXXSSS",
"OeSYYSQSYYSSS",
"OPSZ0QxQZ0SSS",
"OPSZ1SQxZ1SSS",
"OPS10xQS10SSS",
"OPS01QSS01SSS",
"O2SSSSSSSSSSS",
"OuPPPPPPPPPPP",
"TOOOOOTOOOOOO"};
