/* XPM */
static char * sideback_r[] = {
"5 24 42 1",
" 	c #5A5A5A",
".	c #595959",
"+	c #8A8A8A",
"@	c #8B8B8B",
"#	c #898989",
"$	c #999999",
"%	c #535353",
"&	c #747474",
"*	c #737373",
"=	c #757575",
"-	c #868686",
";	c #4E4E4E",
">	c #707070",
",	c #717171",
"'	c #6F6F6F",
")	c #818181",
"!	c #494949",
"~	c #6B6B6B",
"{	c #6A6A6A",
"]	c #6C6C6C",
"^	c #7D7D7D",
"/	c #424242",
"(	c #666666",
"_	c #676767",
":	c #797979",
"<	c #3B3B3B",
"[	c #626262",
"}	c #373737",
"|	c #5E5E5E",
"1	c #5F5F5F",
"2	c #727272",
"3	c #313131",
"4	c #5B5B5B",
"5	c #2E2E2E",
"6	c #2F2F2F",
"7	c #5C5C5C",
"8	c #363636",
"9	c #515151",
"0	c #000000",
"a	c #505050",
"b	c #4F4F4F",
"c	c #383838",
" ....",
"+@#$%",
"&*=-;",
">,')!",
"~{]^/",
"(_(:<",
"[[[=}",
"|1|23",
"444>5",
"4 4>5",
"444>6",
"4 7'5",
"}}890",
"}}}a0",
"}}}a0",
"}}}a0",
"}}8b0",
"c}}90",
"}8}b0",
"}}}b0",
"}8}a0",
"}c8a0",
"aba_0",
"00000"};
